<svg width="34" height="34" viewBox="0 0 34 34" fill="none" xmlns="http://www.w3.org/2000/svg">
  <path fill-rule="evenodd" clip-rule="evenodd"
    d="M2.21851 5.66667C2.21851 5.38488 2.33045 5.11463 2.5297 4.91537C2.72896 4.71611 2.99921 4.60417 3.28101 4.60417H4.95409C5.72262 4.60421 6.46526 4.88192 7.04524 5.38616C7.62523 5.89039 8.00351 6.5872 8.11042 7.34825L8.19684 7.96451H27.9806C28.5096 7.96451 29.0303 8.09618 29.4957 8.34763C29.9611 8.59908 30.3566 8.96241 30.6466 9.40487C30.9365 9.84732 31.1118 10.355 31.1566 10.8821C31.2014 11.4092 31.1143 11.9391 30.9032 12.4242L27.1235 21.1055C26.8758 21.6747 26.4672 22.1591 25.9481 22.4993C25.4289 22.8396 24.8217 23.0208 24.2009 23.0208H10.9395C10.171 23.0208 9.42834 22.7431 8.84835 22.2389C8.26836 21.7346 7.89008 21.0378 7.78317 20.2768L6.00667 7.64434C5.97113 7.39049 5.84501 7.15804 5.65157 6.98986C5.45814 6.82167 5.21042 6.72909 4.95409 6.72917H3.28242C3.00063 6.72917 2.73038 6.61723 2.53112 6.41797C2.33186 6.21872 2.21992 5.94846 2.21992 5.66667M8.49717 10.0895L9.88834 19.9807C9.92388 20.2345 10.05 20.467 10.2434 20.6352C10.4369 20.8033 10.6846 20.8959 10.9409 20.8958H24.2023C24.4092 20.896 24.6117 20.8358 24.7848 20.7225C24.9579 20.6093 25.0943 20.448 25.177 20.2583L28.9553 11.5742C29.0252 11.4127 29.0539 11.2363 29.0388 11.0609C29.0237 10.8856 28.9653 10.7167 28.8688 10.5695C28.7723 10.4223 28.6408 10.3014 28.486 10.2176C28.3312 10.1338 28.158 10.0898 27.982 10.0895H8.49717Z"
    fill="currentColor" />
  <path
    d="M8.5481 27.625C8.5481 26.9675 8.80929 26.3369 9.27423 25.872C9.73916 25.407 10.3697 25.1458 11.0273 25.1458C11.6848 25.1458 12.3154 25.407 12.7803 25.872C13.2452 26.3369 13.5064 26.9675 13.5064 27.625C13.5064 28.2825 13.2452 28.9131 12.7803 29.378C12.3154 29.843 11.6848 30.1042 11.0273 30.1042C10.3697 30.1042 9.73916 29.843 9.27423 29.378C8.80929 28.9131 8.5481 28.2825 8.5481 27.625ZM23.1199 25.1458C22.4624 25.1458 21.8318 25.407 21.3669 25.872C20.902 26.3369 20.6408 26.9675 20.6408 27.625C20.6408 28.2825 20.902 28.9131 21.3669 29.378C21.8318 29.843 22.4624 30.1042 23.1199 30.1042C23.7774 30.1042 24.408 29.843 24.873 29.378C25.3379 28.9131 25.5991 28.2825 25.5991 27.625C25.5991 26.9675 25.3379 26.3369 24.873 25.872C24.408 25.407 23.7774 25.1458 23.1199 25.1458Z"
    fill="currentColor" />
</svg>