<svg width="20" height="16" viewBox="0 0 20 16" fill="none" xmlns="http://www.w3.org/2000/svg">
<path d="M1.03047 4.60572C0.757809 4.41529 0.621478 4.32007 0.502618 4.30771C0.324866 4.28922 0.146721 4.37886 0.0587909 4.53103C-7.26093e-06 4.63279 -4.71644e-06 4.79481 3.74303e-07 5.11883V10.8812C-1.08672e-05 11.5967 -2.01437e-05 12.1872 0.0401772 12.6683C0.0819274 13.1679 0.171531 13.6272 0.396341 14.0586C0.744972 14.7277 1.30126 15.2716 1.98549 15.6125C2.4267 15.8323 2.89643 15.9199 3.40743 15.9607C3.89942 16 4.50338 16 5.23516 16H14.7648C15.4966 16 16.1006 16 16.5926 15.9607C17.1036 15.9199 17.5733 15.8323 18.0145 15.6125C18.6987 15.2716 19.255 14.7277 19.6037 14.0586C19.8285 13.6272 19.9181 13.1679 19.9598 12.6683C20 12.1872 20 11.5967 20 10.8812V5.11882C20 4.96001 20 4.88061 19.9851 4.82515C19.9179 4.57446 19.6391 4.43166 19.39 4.52028C19.3349 4.53988 19.2673 4.58565 19.1321 4.67719L12.0938 9.44172C11.5947 9.78059 11.1566 10.0781 10.6588 10.1961C10.2234 10.2993 9.76875 10.296 9.33497 10.1866C8.83902 10.0615 8.40539 9.75766 7.9115 9.41165L1.03047 4.60572Z" fill="currentColor"/>
<path d="M19.2116 2.46108C19.3795 2.34748 19.4634 2.29068 19.5149 2.19933C19.5549 2.12838 19.5778 2.01604 19.5687 1.93551C19.5569 1.83181 19.5118 1.76335 19.4216 1.62643C19.0763 1.1019 18.5794 0.668939 18.0145 0.387534C17.5733 0.167719 17.1036 0.0801068 16.5926 0.0392844C16.1006 -1.96927e-05 15.4966 -1.06241e-05 14.7648 3.65908e-07H5.23518C4.5034 -1.06241e-05 3.89942 -1.9696e-05 3.40743 0.0392844C2.89643 0.0801068 2.4267 0.167719 1.98549 0.387534C1.47728 0.640726 1.038 1.00676 0.703968 1.45187C0.598878 1.5919 0.546333 1.66192 0.529022 1.76818C0.515484 1.85128 0.534387 1.96673 0.573783 2.04154C0.624159 2.13721 0.711538 2.19824 0.886297 2.32029L8.86367 7.89179C9.52478 8.35352 9.66507 8.43385 9.78922 8.46517C9.93381 8.50165 10.0854 8.50274 10.2305 8.46835C10.3551 8.43881 10.4966 8.3605 11.1646 7.90833L19.2116 2.46108Z" fill="currentColor"/>
</svg>
