<svg width="24" height="24" viewBox="0 0 24 24" fill="none" xmlns="http://www.w3.org/2000/svg">
<path d="M23.9983 12.0004C23.9983 18.0612 19.5059 23.0717 13.6698 23.8848C13.1242 23.9605 12.5659 24 11.9992 24C11.345 24 10.7026 23.9479 10.0771 23.847C4.36379 22.9271 0 17.9729 0 12.0004C0 5.37294 5.37276 0 12 0C18.6272 0 24 5.37294 24 12.0004H23.9983Z" fill="#FBF9FB"/>
<path d="M13.6689 7.90376V10.7299H16.9026L16.3906 14.5368H13.6689V23.3079C13.1232 23.3897 12.5649 23.4324 11.9982 23.4324C11.344 23.4324 10.7017 23.376 10.0761 23.267V14.5368H7.09375V10.7299H10.0761V7.272C10.0761 5.12673 11.6846 3.38688 13.6697 3.38688V3.3887C13.6756 3.3887 13.6806 3.38688 13.6865 3.38688H16.9034V6.67932H14.8014C14.1767 6.67932 13.6697 7.22746 13.6697 7.90285L13.6689 7.90376Z" fill="currentColor"/>
</svg>
