<svg width="24" height="22" viewBox="0 0 24 22" fill="currentColor" xmlns="http://www.w3.org/2000/svg">
  <path d="M17.2502 1C20.5679 1.00017 23.1663 3.58884 23.1663 6.91699C23.1662 8.95166 22.2534 10.8427 20.5452 12.9326C19.2598 14.5051 17.5541 16.1561 15.51 18.0361L13.3557 19.998L13.3547 19.999L11.9993 21.2324L10.6448 19.999L10.6438 19.998C7.62986 17.265 5.16818 15.0294 3.45435 12.9326C1.74609 10.8427 0.833349 8.95165 0.833252 6.91699C0.833252 3.58873 3.43246 1 6.75024 1C8.62885 1.0001 10.4402 1.87711 11.6204 3.25195L12.0002 3.69434L12.3792 3.25195C13.5593 1.87694 15.3714 1 17.2502 1Z" fill="#363636"/>
</svg>
