<svg width="24" height="24" viewBox="0 0 24 24" fill="none" xmlns="http://www.w3.org/2000/svg">
<path d="M12.0273 0H11.9727C5.36035 0 0 5.36035 0 11.9727V12.0273C0 18.6397 5.36035 24 11.9727 24H12.0273C18.6397 24 24 18.6397 24 12.0273V11.9727C24 5.36035 18.6397 0 12.0273 0Z" fill="#FBF9FB"/>
<path d="M15.7124 4.8829H8.28613C6.23449 4.8829 4.56543 6.55196 4.56543 8.6036V15.3976C4.56543 17.4492 6.23449 19.1183 8.28613 19.1183H15.7124C17.764 19.1183 19.4331 17.4492 19.4331 15.3976V8.6036C19.4331 6.55196 17.764 4.8829 15.7124 4.8829ZM5.87798 8.6036C5.87798 7.27592 6.95845 6.19544 8.28613 6.19544H15.7124C17.0401 6.19544 18.1206 7.27592 18.1206 8.6036V15.3976C18.1206 16.7252 17.0401 17.8057 15.7124 17.8057H8.28613C6.95845 17.8057 5.87798 16.7252 5.87798 15.3976V8.6036Z" fill="currentColor"/>
<path d="M11.999 15.4609C13.9068 15.4609 15.4599 13.9087 15.4599 12.0001C15.4599 10.0914 13.9077 8.53917 11.999 8.53917C10.0903 8.53917 8.53809 10.0914 8.53809 12.0001C8.53809 13.9087 10.0903 15.4609 11.999 15.4609ZM11.999 9.85256C13.1837 9.85256 14.1473 10.8162 14.1473 12.0009C14.1473 13.1856 13.1837 14.1492 11.999 14.1492C10.8142 14.1492 9.85063 13.1856 9.85063 12.0009C9.85063 10.8162 10.8142 9.85256 11.999 9.85256Z" fill="currentColor"/>
<path d="M15.7801 9.09795C16.2939 9.09795 16.7126 8.68005 16.7126 8.16546C16.7126 7.65087 16.2947 7.23297 15.7801 7.23297C15.2655 7.23297 14.8477 7.65087 14.8477 8.16546C14.8477 8.68005 15.2655 9.09795 15.7801 9.09795Z" fill="currentColor"/>
</svg>
