<svg width="24" height="24" viewBox="0 0 24 24" fill="none" xmlns="http://www.w3.org/2000/svg">
<path d="M12.0273 0H11.9727C5.36036 0 0 5.36035 0 11.9727V12.0273C0 18.6397 5.36036 24 11.9727 24H12.0273C18.6396 24 24 18.6397 24 12.0273V11.9727C24 5.36035 18.6396 0 12.0273 0Z" fill="#FBF9FB"/>
<path d="M5.72436 7.97696C5.4082 7.68351 5.25098 7.32027 5.25098 6.88808C5.25098 6.45589 5.40904 6.07667 5.72436 5.78238C6.04051 5.48893 6.44748 5.34178 6.94609 5.34178C7.44471 5.34178 7.83571 5.48893 8.15102 5.78238C8.46717 6.07583 8.6244 6.44496 8.6244 6.88808C8.6244 7.3312 8.46633 7.68351 8.15102 7.97696C7.83487 8.27041 7.43378 8.41756 6.94609 8.41756C6.45841 8.41756 6.04051 8.27041 5.72436 7.97696ZM8.3587 9.66032V18.6573H5.51583V9.66032H8.3587Z" fill="currentColor"/>
<path d="M17.8219 10.5494C18.4416 11.2221 18.751 12.1453 18.751 13.3208V18.4987H16.0511V13.6857C16.0511 13.0929 15.8972 12.6322 15.5903 12.3042C15.2834 11.9763 14.8697 11.8115 14.3518 11.8115C13.8338 11.8115 13.4201 11.9755 13.1132 12.3042C12.8063 12.6322 12.6524 13.0929 12.6524 13.6857V18.4987H9.93652V9.63542H12.6524V10.8109C12.9274 10.4191 13.2982 10.1097 13.764 9.88179C14.2298 9.65392 14.7537 9.54041 15.3364 9.54041C16.374 9.54041 17.203 9.87674 17.8219 10.5486V10.5494Z" fill="currentColor"/>
</svg>
