<svg width="14" height="16" viewBox="0 0 14 16" fill="none" xmlns="http://www.w3.org/2000/svg">
<path fill-rule="evenodd" clip-rule="evenodd" d="M0.5 6.54545C0.5 2.9305 3.41015 0 7 0C10.5899 0 13.5 2.9305 13.5 6.54545C13.5 8.38268 12.6717 9.9929 11.5444 11.4669C10.6024 12.6987 9.39658 13.9024 8.19213 15.1048L8.19128 15.1056C7.96378 15.3327 7.73632 15.5598 7.51069 15.787C7.22864 16.071 6.77136 16.071 6.48931 15.787C6.26352 15.5596 6.0354 15.3319 5.80773 15.1046C4.60328 13.9023 3.39759 12.6987 2.45558 11.4669C1.32827 9.9929 0.5 8.38268 0.5 6.54545ZM9.16667 6.54545C9.16667 7.75044 8.19662 8.72727 7 8.72727C5.80338 8.72727 4.83333 7.75044 4.83333 6.54545C4.83333 5.34047 5.80338 4.36364 7 4.36364C8.19662 4.36364 9.16667 5.34047 9.16667 6.54545Z" fill="currentColor"/>
</svg>
