<svg width="16" height="17" viewBox="0 0 16 17" fill="none" xmlns="http://www.w3.org/2000/svg">
<path fill-rule="evenodd" clip-rule="evenodd" d="M11.7701 16.7604C10.6161 16.718 7.34581 16.2661 3.92082 12.8426C0.496633 9.41831 0.0454705 6.14945 0.00219731 4.99494C-0.0619111 3.23552 1.28597 1.52659 2.843 0.859194C3.0305 0.778247 3.23582 0.747428 3.43883 0.769761C3.64184 0.792095 3.83555 0.866813 4.00096 0.986583C5.28312 1.92077 6.16782 3.33407 6.9275 4.44532C7.09465 4.68947 7.16612 4.98656 7.12829 5.28C7.09046 5.57344 6.94597 5.8427 6.72236 6.03649L5.15891 7.19741C5.08338 7.25194 5.03021 7.33204 5.00928 7.4228C4.98835 7.51357 5.00109 7.60885 5.04512 7.69094C5.39932 8.3343 6.02919 9.29252 6.7504 10.0136C7.47162 10.7347 8.47572 11.4061 9.16408 11.8003C9.25039 11.8487 9.35198 11.8622 9.44797 11.8381C9.54396 11.8139 9.62705 11.754 9.68016 11.6705L10.6979 10.1218C10.885 9.87327 11.161 9.7068 11.4681 9.65721C11.7752 9.60763 12.0896 9.67878 12.3455 9.85576C13.473 10.6361 14.7888 11.5054 15.752 12.7384C15.8815 12.905 15.9639 13.1033 15.9906 13.3126C16.0172 13.5219 15.9871 13.7345 15.9035 13.9282C15.2327 15.4929 13.5355 16.8253 11.7701 16.7604Z" fill="currentColor"/>
</svg>
