<svg width="86" height="82" viewBox="0 0 86 82" fill="none" xmlns="http://www.w3.org/2000/svg">
<path d="M37.6541 0.102402C37.3834 0.136189 36.4192 0.25444 35.5395 0.355797C26.8612 1.3356 18.2675 5.54198 11.9406 11.8938C5.46151 18.3976 1.53683 26.405 0.31882 35.6117C0.0143182 38.0274 0.0481517 43.7373 0.42032 46.1192C1.06316 50.4439 2.19658 54.1773 4.00667 57.9444C5.12318 60.2588 6.39193 62.4549 7.00094 63.1306C7.71144 63.9246 9.31853 63.3333 9.31853 62.3028C9.31853 62.0832 8.84486 61.1541 8.28661 60.225C3.33 52.0487 1.63833 42.5717 3.48225 33.1453C6.2566 18.9551 17.2187 7.41712 31.2765 3.88646C42.7291 1.01463 54.7569 3.5486 64.0273 10.7957L65.0254 11.5728L64.1965 11.6911C63.7397 11.7418 63.0123 11.8093 62.5894 11.8093C60.9654 11.8431 60.3564 13.4311 61.6759 14.2926C62.0311 14.5291 62.4371 14.5291 65.2622 14.3771C68.6625 14.1744 69.2038 14.0561 69.5253 13.448C69.8298 12.9074 69.4576 6.67382 69.1023 6.11635C68.7132 5.52509 68.1381 5.32237 67.546 5.55888C66.7678 5.87984 66.5987 6.36975 66.734 8.02527C66.7847 8.81925 66.8017 9.46119 66.7509 9.46119C66.6832 9.46119 66.1419 9.05575 65.516 8.54896C62.7416 6.31907 58.2079 3.80199 54.5708 2.45054C52.5239 1.69035 48.9206 0.778126 46.5354 0.42337C44.8437 0.169975 38.7368 -0.0496368 37.6541 0.102402Z" fill="#3F4A5D"/>
<path d="M39.9375 15.7623C39.7006 15.8806 34.9301 18.6341 29.3476 21.8607C21.1599 26.5739 19.1299 27.8071 18.9776 28.1787C18.8423 28.4997 18.7915 31.9797 18.8254 40.4094C18.8761 51.9474 18.8761 52.2008 19.2144 52.5217C19.8234 53.0961 40.1574 64.7017 40.5634 64.7017C41.0201 64.7017 61.2864 53.0792 61.9292 52.4373L62.3522 52.0318V40.0377C62.3522 28.2801 62.3522 28.0436 62.0138 27.7226C61.7262 27.4355 43.3208 16.7421 41.5953 15.8637C40.851 15.492 40.5126 15.4582 39.9375 15.7623ZM49.7999 23.6683C54.1983 26.2023 57.8861 28.3477 58.0046 28.4659C58.1737 28.618 57.5816 29.0403 55.0441 30.4931C53.3017 31.4898 51.7961 32.3513 51.7284 32.402C51.6438 32.4358 50.0875 31.6081 48.2605 30.5607C36.4526 23.7865 34.0166 22.3168 34.2196 22.1817C34.338 22.1141 35.8436 21.2357 37.5691 20.239L40.6987 18.4314L41.257 18.7693C41.5784 18.9382 45.4185 21.1512 49.7999 23.6683ZM40.0051 28.922C44.7249 31.6418 48.5819 33.9393 48.5819 34.0407C48.5988 34.2265 40.631 38.8721 40.4619 38.7876C39.43 38.247 23.376 28.9558 23.2237 28.8038C23.0545 28.6518 23.9004 28.0943 27.03 26.3036C29.2461 25.0366 31.1407 23.9893 31.2422 23.9893C31.3437 23.9893 35.2854 26.2192 40.0051 28.922ZM30.4133 36.1354L39.1762 41.1864L39.227 51.0858C39.2439 56.5254 39.227 60.9852 39.1931 60.9852C39.1593 60.9852 35.1838 58.7046 30.3626 55.9341L21.5828 50.8662L21.532 40.9837C21.5151 35.5441 21.532 31.0844 21.5659 31.0844C21.6166 31.0844 25.5921 33.3649 30.4133 36.1354ZM59.7301 40.9162V50.7648L51.6608 55.4104C47.2286 57.9613 43.2362 60.2588 42.7795 60.5291L41.9675 60.9852V51.0689V41.1358L45.9429 38.8552C48.1421 37.6051 50.0029 36.5408 50.0875 36.5239C50.189 36.4902 50.2567 37.2504 50.2567 38.5173C50.2567 40.46 50.2736 40.5783 50.6796 40.9668C51.1702 41.4736 51.9314 41.5074 52.4728 41.0682C52.8619 40.7472 52.8788 40.6459 52.9634 37.7571L53.0479 34.784L56.1775 32.9426C57.903 31.9459 59.4086 31.1182 59.5271 31.1013C59.6793 31.0844 59.7301 33.1622 59.7301 40.9162Z" fill="#3F4A5D"/>
<path d="M72.3336 17.9921C72.0967 18.2117 71.9106 18.5665 71.9106 18.7861C71.9106 19.0057 72.3843 19.9348 72.9426 20.8639C77.8992 29.0402 79.5909 38.5172 77.7469 47.9436C74.9726 62.1338 63.9598 73.7225 49.9358 77.2025C38.2971 80.0912 26.1847 77.4727 16.8635 70.0398L16.2207 69.5161L16.9481 69.3978C17.3541 69.3472 18.0139 69.2796 18.403 69.2796C19.3672 69.2627 19.9086 68.9755 20.1623 68.3842C20.3991 67.793 20.1961 67.2186 19.5702 66.8132C19.198 66.5598 18.8259 66.5598 15.7978 66.7287C13.9539 66.847 12.3129 66.999 12.1607 67.0835C11.5348 67.4213 11.484 67.793 11.687 71.2561C11.7885 73.0805 11.9577 74.7023 12.0423 74.8712C12.2622 75.2597 12.8712 75.6821 13.2603 75.6821C13.4294 75.6821 13.8016 75.4456 14.0892 75.1584L14.6136 74.6516L14.5121 73.1312C14.4444 72.3035 14.4444 71.6277 14.4952 71.6277C14.5459 71.6277 15.0873 72.0332 15.7132 72.54C18.5214 74.7867 23.0043 77.3038 26.6414 78.6384C34.643 81.5778 43.8965 81.8481 52.2872 79.3648C66.3281 75.2091 77.324 63.2994 80.2844 49.0247C80.9442 45.8995 81.1134 44.0244 81.1134 40.3755C81.1134 35.4934 80.4705 31.6248 78.8973 27.1313C77.8823 24.2088 75.3278 19.1746 74.2282 17.9414C73.7546 17.4177 72.8749 17.4346 72.3336 17.9921Z" fill="#3F4A5D"/>
</svg>
