<svg width="86" height="81" viewBox="0 0 86 81" fill="none" xmlns="http://www.w3.org/2000/svg">
<path d="M38.3241 0.0406494C36.3136 0.262283 34.8888 0.499748 33.5748 0.832199C28.7464 2.03535 24.4245 4.48914 20.8309 8.09859C15.9708 12.9587 13.1846 19.1169 12.7413 26.035C12.6305 27.6181 12.6147 27.6656 12.2189 27.7448C9.08438 28.4255 7.04219 29.8661 5.94986 32.1616C5 34.188 5 34.1563 5 44.0348C5 52.1561 5.03166 53.1534 5.28496 54.0716C6.17149 57.2853 8.38782 59.4224 11.6173 60.1665C12.4089 60.3565 13.5487 60.4198 15.9867 60.4198H19.2795L19.6753 60.024C19.8969 59.8024 20.1185 59.4066 20.1819 59.1375C20.3085 58.4884 20.3085 29.5812 20.1819 28.9321C20.1185 28.663 19.8969 28.2672 19.6911 28.0456C19.327 27.6814 19.1687 27.6498 17.5223 27.6181L15.765 27.5706L15.8125 26.3042C16.0025 21.7607 17.6489 17.0431 20.3877 13.1962C22.2399 10.5999 25.5802 7.62366 28.4614 6.00891C31.8176 4.14086 36.4402 2.95354 40.3821 2.95354C44.324 2.95354 48.9466 4.14086 52.3028 6.00891C55.184 7.62366 58.5243 10.5999 60.3766 13.1962C63.1153 17.0431 64.7617 21.7607 64.9517 26.3042L64.9992 27.5706L63.242 27.6181C61.5797 27.6498 61.4372 27.6814 61.0731 28.0614C60.8198 28.3147 60.6299 28.7263 60.5665 29.1221C60.519 29.4862 60.4874 36.4676 60.519 44.6364L60.5665 59.5016L61.089 59.9607C61.5956 60.404 61.643 60.4198 63.337 60.4198H65.0625L64.9834 61.243C64.5401 65.8181 63.4636 68.6044 61.3739 70.5199C59.3159 72.388 55.8173 73.512 51.1313 73.8128L49.4532 73.9236L49.3582 72.9421C49.2316 71.7706 48.9783 71.2323 48.2342 70.5833C47.3635 69.8234 46.5562 69.7284 40.8887 69.7917C36.3452 69.8392 35.8228 69.8709 35.3162 70.14C34.5405 70.5516 34.2239 70.8682 33.8756 71.5331C33.6065 72.0555 33.5748 72.4988 33.5748 75.3642C33.5748 78.7995 33.6381 79.2111 34.3347 79.9552C35.2846 80.9683 35.4587 81 41.4903 81C46.857 81 46.9836 81 47.6643 80.6359C48.6617 80.1451 49.2474 79.2428 49.3582 78.0238L49.4532 77.0581L50.2606 76.9789C50.7039 76.9315 51.8912 76.8206 52.8885 76.7257C59.7117 76.0766 63.891 73.7178 66.1074 69.2851C67.1047 67.2904 67.643 65.2482 67.9754 62.177L68.1654 60.3565L69.2894 60.0873C72.4872 59.2958 74.6086 57.2378 75.4951 54.0558C75.7326 53.1534 75.7642 52.1244 75.7642 43.9556C75.7642 35.6127 75.7326 34.7737 75.4793 33.8238C74.5294 30.4994 72.3447 28.568 68.5453 27.7448C68.1496 27.6656 68.1337 27.6181 68.0229 26.035C67.1839 13.0062 57.6536 2.44695 44.8148 0.325607C43.4691 0.103973 39.3531 -0.0859985 38.3241 0.0406494ZM17.1107 43.9556V57.4119H15.5751C10.8574 57.3961 8.72027 56.0505 8.10286 52.7418C7.8654 51.4753 7.8654 36.4359 8.10286 35.1695C8.45114 33.2698 9.44849 31.9083 11.0316 31.1801C12.0448 30.721 13.2004 30.5468 15.4167 30.5152L17.1107 30.4994V43.9556ZM69.1944 31.0376C70.8091 31.6392 71.9965 32.8582 72.4714 34.4254C72.7247 35.2486 72.7563 36.1035 72.7247 43.9556C72.693 52.1877 72.6772 52.631 72.3606 53.66C72.0756 54.5624 71.8698 54.9106 71.1258 55.6705C69.8118 57.0003 68.9728 57.2853 65.9965 57.3803L63.6536 57.4436V44.0348V30.626L66.0757 30.7052C67.7696 30.7526 68.6878 30.8476 69.1944 31.0376ZM46.2396 75.4592V77.9921H41.4111H36.5827V75.4592V72.9262H41.4111H46.2396V75.4592Z" fill="#3F4A5D"/>
</svg>
