<svg width="81" height="81" viewBox="0 0 81 81" fill="none" xmlns="http://www.w3.org/2000/svg">
<g clip-path="url(#clip0_165_280)">
<path d="M36.7506 0.158318C27.3691 1.07589 18.4939 5.26828 11.8652 11.9128C5.48965 18.2884 1.61368 26.2144 0.28477 35.5167C-0.0316367 37.7316 0.0158242 43.4902 0.379691 45.9581C0.996684 50.3562 2.29395 54.5169 4.28731 58.5195C9.52383 69.0716 19.016 76.7445 30.5016 79.7187C38.5541 81.807 47.3818 81.2691 55.1813 78.2316C60.7025 76.0642 65.2904 73.0109 69.5303 68.6445C72.7734 65.3222 74.9092 62.253 76.8867 58.1556C78.7693 54.2638 79.8926 50.6568 80.557 46.4327C81.0475 43.2687 81.0475 37.7316 80.557 34.5675C79.8768 30.2486 78.7535 26.6573 76.8076 22.7023C74.8617 18.7314 72.6627 15.6148 69.5461 12.3874C63.2338 5.85363 55.3553 1.80363 46.1953 0.395622C44.2336 0.0950317 38.8231 -0.0315323 36.7506 0.158318ZM44.9297 3.0218C54.1688 4.01848 63.0914 8.71711 69.2297 15.8679C73.5486 20.8829 76.3963 26.7048 77.6777 33.0646C81.0949 50.0556 72.7102 67.0308 57.1904 74.5929C52.6975 76.7761 48.5051 77.9152 43.2369 78.3739L42.2719 78.4689L41.9238 77.3931C39.6932 70.448 34.6939 64.0882 27.3691 58.8517C24.3 56.6527 19.7438 54.1056 18.9053 54.1056C18.3832 54.1056 17.7188 54.77 17.7188 55.2921C17.7188 56.0198 18.0193 56.3046 19.5064 57.0482C26.9104 60.7818 33.2701 66.4454 37.0037 72.6628C37.8264 74.0234 39.266 77.1558 39.4875 78.0575L39.5982 78.5163L38.3484 78.4056C31.1027 77.7886 25.4865 75.906 19.8545 72.2198C10.6471 66.1765 4.52461 56.4312 3.08496 45.4519C2.8002 43.2687 2.75274 38.5384 2.99004 36.4659C4.08164 27.4167 7.89434 19.6964 14.3332 13.4474C18.5098 9.4132 23.2717 6.50227 28.6031 4.74621C34.0928 2.9427 39.1553 2.4048 44.9297 3.0218Z" fill="#3F4A5D"/>
<path d="M22.6547 20.5189C22.4648 20.6771 21.7213 21.5473 20.9777 22.4332C19.459 24.2684 19.3166 24.7113 20.0127 25.3916C20.4873 25.882 21.1676 25.8979 21.7371 25.4549L22.1484 25.1385V29.0145V32.9063H21.2783C20.5506 32.9063 20.3291 32.9695 20.0127 33.3018C19.4906 33.808 19.4906 34.5357 20.0127 35.042C20.3924 35.4375 20.424 35.4375 23.4141 35.4375C26.4041 35.4375 26.4357 35.4375 26.8154 35.042C27.3375 34.5357 27.3375 33.808 26.8154 33.3018C26.499 32.9695 26.2775 32.9063 25.5498 32.9063H24.6797V26.9736V21.0252L24.2842 20.6455C23.8254 20.1709 23.1135 20.1234 22.6547 20.5189Z" fill="#3F4A5D"/>
<path d="M31.6406 20.4558C30.8655 20.709 29.5365 22.0695 29.2992 22.8763C29.0303 23.7781 29.0303 31.9097 29.2992 32.8115C29.5524 33.6816 30.8655 34.9947 31.7356 35.2478C33.2543 35.6908 34.6149 35.3111 35.6432 34.1721C36.0229 33.7607 36.4184 33.1279 36.5133 32.7799C36.7823 31.9256 36.7823 23.7623 36.5133 22.908C36.2444 21.9746 35.1211 20.8039 34.2194 20.5033C33.3809 20.2185 32.4475 20.2027 31.6406 20.4558ZM33.7764 23.1769L34.1719 23.5566V27.8439V32.1312L33.7764 32.5109C33.5391 32.764 33.2069 32.9064 32.9063 32.9064C32.6057 32.9064 32.2735 32.764 32.0362 32.5109L31.6406 32.1312V27.8439V23.5566L32.0362 23.1769C32.2735 22.9238 32.6057 22.7814 32.9063 22.7814C33.2069 22.7814 33.5391 22.9238 33.7764 23.1769Z" fill="#3F4A5D"/>
<path d="M41.7656 20.4558C40.9905 20.709 39.6615 22.0695 39.4242 22.8763C39.1553 23.7781 39.1553 31.9097 39.4242 32.8115C39.6774 33.6816 40.9905 34.9947 41.8606 35.2478C43.3793 35.6908 44.7399 35.3111 45.7682 34.1721C46.1479 33.7607 46.5434 33.1279 46.6383 32.7799C46.7649 32.3685 46.8281 30.7232 46.8281 27.8439C46.8281 24.9646 46.7649 23.3193 46.6383 22.908C46.3694 21.9746 45.2461 20.8039 44.3444 20.5033C43.5059 20.2185 42.5725 20.2027 41.7656 20.4558ZM43.9014 23.1769L44.2969 23.5566V27.8439V32.1312L43.9014 32.5109C43.6641 32.764 43.3319 32.9064 43.0313 32.9064C42.7307 32.9064 42.3985 32.764 42.1612 32.5109L41.7656 32.1312V27.8439V23.5566L42.1612 23.1769C42.3985 22.9238 42.7307 22.7814 43.0313 22.7814C43.3319 22.7814 43.6641 22.9238 43.9014 23.1769Z" fill="#3F4A5D"/>
<path d="M58.0922 21.1518C57.6018 21.5948 51.2578 33.1436 51.2578 33.6182C51.2578 34.5516 52.5709 35.1528 53.2828 34.52C53.7732 34.0929 60.1172 22.544 60.1172 22.0694C60.1172 21.136 58.8041 20.5348 58.0922 21.1518Z" fill="#3F4A5D"/>
<path d="M51.6533 23.4932C51.4002 23.7305 51.2578 24.0627 51.2578 24.3633C51.2578 24.6639 51.4002 24.9961 51.6533 25.2334C51.8906 25.4865 52.2229 25.6289 52.5234 25.6289C52.824 25.6289 53.1563 25.4865 53.3936 25.2334C53.6467 24.9961 53.7891 24.6639 53.7891 24.3633C53.7891 24.0627 53.6467 23.7305 53.3936 23.4932C53.1563 23.24 52.824 23.0977 52.5234 23.0977C52.2229 23.0977 51.8906 23.24 51.6533 23.4932Z" fill="#3F4A5D"/>
<path d="M71.4604 29.5999C71.3022 29.6948 70.9857 30.1536 70.7643 30.6282C69.3088 33.729 64.183 35.6274 54.0264 36.8614C49.8498 37.3676 48.1096 37.8581 45.8947 39.1553C44.0438 40.2469 42.0979 42.3668 41.0695 44.4235C39.9938 46.5592 39.2344 49.8499 39.2344 52.4127C39.2344 53.5043 39.2818 53.6942 39.6299 54.0264C40.1678 54.5801 40.9904 54.5643 41.4334 54.0106C41.7023 53.6626 41.7656 53.362 41.7656 52.2862C41.7656 47.9989 43.4268 44.202 46.2428 42.0346C48.2678 40.4842 50.0396 39.8989 54.2637 39.3926C62.2055 38.4276 67.1414 37.0829 70.0523 35.0895L70.7168 34.6307V35.1686C70.7168 36.1178 70.0682 39.535 69.5936 41.1961C68.9766 43.3002 67.4895 46.3061 66.2871 47.904C64.0406 50.894 60.7658 52.8874 56.7791 53.7258C55.7982 53.9315 54.5959 54.0106 52.1279 54.0422C50.3086 54.0581 48.7107 54.0739 48.6 54.0897C48.4893 54.0897 48.2836 54.3586 48.1412 54.6592C47.9355 55.0864 47.9197 55.292 48.0621 55.5926C48.3943 56.352 48.8531 56.4944 51.2104 56.5893C56.1779 56.795 60.576 55.7508 63.9299 53.5518C65.4486 52.5551 68.0748 49.929 69.0557 48.4102C70.6377 45.9739 71.9191 42.8256 72.5994 39.6616C73.3588 36.1969 73.6594 31.0079 73.1689 30.0745C72.8367 29.4258 72.109 29.2202 71.4604 29.5999Z" fill="#3F4A5D"/>
<path d="M57.9814 30.4541C57.7283 30.6914 57.5859 31.0236 57.5859 31.3242C57.5859 31.6248 57.7283 31.957 57.9814 32.1943C58.2188 32.4475 58.551 32.5898 58.8516 32.5898C59.1521 32.5898 59.4844 32.4475 59.7217 32.1943C59.9748 31.957 60.1172 31.6248 60.1172 31.3242C60.1172 31.0236 59.9748 30.6914 59.7217 30.4541C59.4844 30.201 59.1521 30.0586 58.8516 30.0586C58.551 30.0586 58.2188 30.201 57.9814 30.4541Z" fill="#3F4A5D"/>
<path d="M6.80277 41.7658C6.32816 42.2404 6.2807 42.715 6.37562 45.5469C6.81859 57.0799 11.5963 65.1641 19.7438 68.0908C22.3383 69.0242 25.8821 69.4514 29.1569 69.2141C30.5965 69.1191 30.9287 69.04 31.2768 68.7553C31.8147 68.2965 31.8305 67.5213 31.3401 67.0309C31.0078 66.6986 30.8813 66.6828 27.7172 66.667C24.2209 66.667 22.9553 66.493 20.7879 65.7494C16.1842 64.1832 12.8619 60.7818 10.8369 55.5453C9.98265 53.3621 9.01761 48.9641 9.01761 47.3346V46.86L10.0459 47.5561C13.3049 49.7393 18.1301 51.1315 25.5815 52.049C30.3434 52.6502 32.226 53.4096 34.4409 55.6244C35.5008 56.6844 35.8489 57.1748 36.45 58.393C37.3676 60.2756 37.7948 62.0633 37.9213 64.468C38.0004 66.0816 38.0637 66.4139 38.3327 66.7145C38.9813 67.4264 40.2311 67.0467 40.4209 66.0816C41.0379 63.0283 43.4901 58.2348 46.0055 55.2289C49.4385 51.0998 54.2637 47.3346 59.4369 44.74C61.9366 43.4902 62.2371 43.1738 61.8575 42.2404C61.3987 41.1488 60.845 41.1963 58.1239 42.541C53.7258 44.74 50.1504 47.3029 46.7332 50.7043C43.9172 53.5045 41.7024 56.4629 40.1836 59.4846L39.8198 60.1965L39.6616 59.7219C38.2535 55.2922 35.5799 52.3022 31.6407 50.7518C30.2168 50.1981 28.8405 49.9133 25.708 49.5178C16.1051 48.3154 10.568 46.0531 8.97015 42.6834C8.73284 42.1772 8.40062 41.7025 8.22659 41.6076C7.75198 41.3545 7.15081 41.4178 6.80277 41.7658Z" fill="#3F4A5D"/>
</g>
<defs>
<clipPath id="clip0_165_280">
<rect width="81" height="81" fill="white"/>
</clipPath>
</defs>
</svg>
