<svg width="81" height="81" viewBox="0 0 81 81" fill="none" xmlns="http://www.w3.org/2000/svg">
<g clip-path="url(#clip0_165_298)">
<path d="M7.94312 14.8498C8.11887 14.8491 8.29461 14.8484 8.47568 14.8476C8.67036 14.8477 8.86505 14.8477 9.06564 14.8477C9.374 14.8468 9.374 14.8468 9.68859 14.846C10.2611 14.8444 10.8337 14.8438 11.4062 14.8434C12.023 14.8427 12.6398 14.8412 13.2565 14.8398C14.7471 14.8367 16.2376 14.8351 17.7281 14.8337C18.4297 14.833 19.1313 14.8322 19.8328 14.8313C22.1645 14.8287 24.4962 14.8264 26.8279 14.8252C27.4332 14.8249 28.0386 14.8246 28.6439 14.8243C28.7944 14.8242 28.9448 14.8241 29.0998 14.8241C31.5375 14.8228 33.9751 14.8187 36.4127 14.8136C38.9142 14.8084 41.4158 14.8055 43.9174 14.805C45.3223 14.8047 46.7273 14.8033 48.1323 14.7993C49.3288 14.7958 50.5252 14.7945 51.7218 14.7961C52.3323 14.7968 52.9428 14.7965 53.5533 14.7934C54.2152 14.7901 54.877 14.7917 55.539 14.7938C55.7319 14.7921 55.9248 14.7904 56.1236 14.7886C57.1729 14.7966 57.8478 14.8615 58.6933 15.5038C59.3079 16.2801 59.506 16.867 59.4998 17.8398C59.4993 17.9805 59.4988 18.1212 59.4983 18.2662C59.4969 18.4118 59.4956 18.5574 59.4942 18.7074C59.4935 18.8555 59.4928 19.0035 59.4921 19.1561C59.4902 19.5207 59.4876 19.8853 59.4844 20.2499C59.6136 20.2485 59.7429 20.2471 59.8761 20.2456C61.1002 20.2329 62.3243 20.2233 63.5484 20.2171C64.1777 20.2138 64.8068 20.2094 65.436 20.2022C66.0443 20.1952 66.6525 20.1915 67.2608 20.1899C67.4918 20.1887 67.7228 20.1864 67.9537 20.183C70.0156 20.1535 71.575 20.5263 73.0898 21.9901C74.2669 23.3757 74.4066 25.087 74.4339 26.8339C74.3426 27.457 74.1687 27.7232 73.7226 28.1601C73.6182 28.1601 73.5138 28.1601 73.4062 28.1601C73.649 29.3201 73.9056 30.4765 74.172 31.6314C74.2608 32.0243 74.3466 32.4179 74.429 32.8122C74.7502 34.8644 74.7502 34.8644 75.7031 36.6364C76.27 37.0043 76.8641 37.0828 77.5195 37.1776C79.2164 38.0412 80.1822 39.3774 80.8418 41.1327C80.9703 41.5757 81.0208 41.9712 81.0243 42.432C81.0257 42.5637 81.027 42.6954 81.0285 42.8312C81.0295 43.0459 81.0295 43.0459 81.0305 43.2651C81.0318 43.4169 81.0331 43.5687 81.0344 43.7252C81.0383 44.2272 81.041 44.7292 81.0432 45.2312C81.0445 45.4883 81.0445 45.4883 81.0458 45.7506C81.05 46.6571 81.0531 47.5636 81.0554 48.4701C81.0575 49.2211 81.0619 49.9721 81.0684 50.7231C81.0761 51.6296 81.0801 52.536 81.0812 53.4425C81.0823 53.7882 81.0847 54.1339 81.0885 54.4795C81.0934 54.9624 81.0935 55.4452 81.0923 55.9281C81.0962 56.1429 81.0962 56.1429 81.1002 56.362C81.0905 57.3282 81.0905 57.3282 80.6306 57.8333C80.0967 58.1209 79.7331 58.1329 79.1281 58.1222C78.8215 58.1192 78.8215 58.1192 78.5086 58.1161C78.2943 58.1108 78.0799 58.1054 77.8656 58.1C77.6482 58.0968 77.4307 58.0939 77.2133 58.0914C76.6824 58.0839 76.1518 58.0735 75.6211 58.0605C75.6239 58.1515 75.6268 58.2426 75.6298 58.3365C75.6695 60.5271 74.7628 62.3793 73.2777 63.9634C71.5209 65.6123 69.5034 66.2282 67.1364 66.2036C64.8688 66.1246 62.9556 65.1673 61.3995 63.5259C60.0051 61.8392 59.4844 60.2244 59.4844 58.0605C50.0871 58.0605 40.6898 58.0605 31.0078 58.0605C31.0078 58.4781 31.0078 58.8958 31.0078 59.3261C30.6291 61.4077 29.6593 63.2113 28.0019 64.5468C25.8678 66.0138 23.9064 66.3605 21.3574 66.1288C19.1941 65.7144 17.3844 64.4345 16.1262 62.6626C15.3914 61.4884 14.8428 60.2074 14.8612 58.8119C14.8626 58.6708 14.864 58.5297 14.8655 58.3843C14.8674 58.2774 14.8692 58.1706 14.8711 58.0605C14.7781 58.0615 14.685 58.0626 14.5892 58.0636C13.6191 58.0742 12.649 58.0813 11.6788 58.0865C11.317 58.0889 10.9552 58.0921 10.5933 58.0963C10.0726 58.102 9.55192 58.1047 9.03116 58.1068C8.78935 58.1105 8.78935 58.1105 8.54266 58.1142C7.56326 58.1145 6.81777 58.0429 6.06794 57.343C5.54632 56.6609 5.35876 56.3453 5.36344 55.4934C5.36395 55.3302 5.36446 55.1671 5.36499 54.999C5.36697 54.7426 5.36697 54.7426 5.369 54.4811C5.36972 54.309 5.37043 54.1369 5.37117 53.9595C5.37303 53.5335 5.37564 53.1075 5.37889 52.6815C5.24405 52.6849 5.10921 52.6882 4.97029 52.6916C4.46759 52.7024 3.96496 52.7103 3.46218 52.7163C3.24505 52.7195 3.02792 52.7238 2.81083 52.7293C2.4979 52.737 2.18486 52.7402 1.87185 52.7433C1.68378 52.7467 1.49572 52.75 1.30195 52.7534C0.6902 52.6674 0.432624 52.4813 -1.52588e-05 52.0487C-0.105072 51.6977 -0.105072 51.6977 -0.0988922 51.3368C-0.100932 51.2177 -0.102971 51.0986 -0.105072 50.9759C0.054491 50.4428 0.326228 50.2889 0.791 49.9921C1.23947 49.9308 1.62595 49.9054 2.07362 49.9102C2.20054 49.9091 2.32746 49.908 2.45822 49.9068C2.87647 49.9041 3.29456 49.9059 3.71281 49.908C4.00419 49.9076 4.29556 49.907 4.58693 49.9062C5.19708 49.9053 5.80718 49.9066 6.41733 49.9096C7.19884 49.9132 7.98022 49.9111 8.76172 49.9073C9.36324 49.905 9.96473 49.9058 10.5662 49.9074C10.8544 49.9078 11.1425 49.9073 11.4306 49.9058C11.8336 49.9042 12.2363 49.9067 12.6392 49.9102C12.7579 49.9089 12.8766 49.9076 12.9989 49.9063C13.5767 49.9157 13.8993 49.9777 14.391 50.2917C14.757 50.6706 14.8206 50.8179 14.8118 51.3368C14.8148 51.5155 14.8148 51.5155 14.8179 51.6977C14.6575 52.2338 14.3917 52.3857 13.9219 52.6815C13.4483 52.7358 13.0357 52.7558 12.5642 52.7433C12.3709 52.742 12.3709 52.742 12.1738 52.7406C11.7643 52.7371 11.3551 52.7292 10.9457 52.7211C10.6673 52.7179 10.3889 52.715 10.1105 52.7124C9.4296 52.706 8.74922 52.6936 8.06834 52.6815C8.06834 53.5691 8.06834 54.4566 8.06834 55.371C10.4699 55.371 12.8714 55.371 15.3457 55.371C15.3979 55.11 15.4501 54.8489 15.5039 54.58C16.5366 52.5774 18.075 51.0794 20.2203 50.3382C22.4649 49.6433 24.6527 49.8742 26.761 50.8579C28.5408 51.8084 29.7195 53.2166 30.5332 55.0546C30.5332 55.159 30.5332 55.2634 30.5332 55.371C39.1996 55.371 47.8659 55.371 56.7949 55.371C56.7949 52.0297 56.7949 48.6885 56.7949 45.246C57.4277 44.6132 57.4277 44.6132 57.7441 44.5291C58.3257 44.5382 58.6043 44.5447 59.079 44.9098C59.4939 45.4741 59.5037 45.8014 59.5023 46.4987C59.5023 46.6951 59.5023 46.8914 59.5023 47.0937C59.5015 47.3088 59.5007 47.5239 59.4998 47.7389C59.4995 47.9584 59.4993 48.1778 59.4991 48.3973C59.4985 48.9752 59.497 49.5531 59.4952 50.131C59.4936 50.7206 59.4929 51.3102 59.4921 51.8998C59.4904 53.0569 59.4877 54.2139 59.4844 55.371C59.641 55.371 59.7976 55.371 59.959 55.371C59.9851 55.2242 60.0112 55.0773 60.0381 54.926C60.5056 53.3108 61.9497 51.8889 63.3455 51.021C65.3971 49.927 67.6733 49.6138 69.9159 50.2591C72.1457 51.0499 73.9203 52.4245 74.9883 54.58C75.0405 54.841 75.0927 55.1021 75.1465 55.371C76.1906 55.371 77.2347 55.371 78.3105 55.371C78.3105 53.596 78.3105 51.8209 78.3105 49.9921C77.684 49.9921 77.0576 49.9921 76.4121 49.9921C75.224 49.7678 74.2616 49.2503 73.5644 48.2519C72.8622 47.1337 72.8727 45.9136 72.8624 44.633C72.8608 44.473 72.8592 44.313 72.8575 44.1482C72.8747 42.7031 72.8747 42.7031 73.4062 42.0819C73.8392 41.8654 74.204 41.8895 74.6879 41.8737C74.9755 41.8637 74.9755 41.8637 75.2688 41.8536C75.4699 41.8474 75.671 41.8411 75.8782 41.8347C76.1816 41.8245 76.1816 41.8245 76.4912 41.814C76.9922 41.7972 77.4931 41.7811 77.9941 41.7655C77.3758 40.6359 76.8038 39.8404 75.5229 39.4487C74.7049 39.2177 73.9444 39.1645 73.0981 39.1659C72.9497 39.1643 72.8014 39.1626 72.6485 39.161C72.164 39.1563 71.6796 39.1548 71.1951 39.1533C70.8568 39.1507 70.5186 39.1478 70.1804 39.1447C69.2945 39.1372 68.4087 39.1325 67.5229 39.1284C66.6172 39.1236 65.7115 39.1163 64.8058 39.1091C63.032 39.0956 61.2582 39.0849 59.4844 39.0761C59.4869 39.196 59.4894 39.3158 59.492 39.4394C59.494 39.5964 59.4959 39.7535 59.498 39.9153C59.5005 40.0711 59.503 40.2269 59.5056 40.3874C59.4797 40.9109 59.3529 41.2114 59.0098 41.6073C58.5147 41.8549 57.9639 41.8758 57.4277 41.7655C57.2189 41.5567 57.0101 41.3479 56.7949 41.1327C56.7949 33.3539 56.7949 25.575 56.7949 17.5604C40.7151 17.5604 24.6354 17.5604 8.06834 17.5604C8.06834 25.2349 8.06834 32.9093 8.06834 40.8163C7.59373 41.6073 7.59373 41.6073 7.27733 41.7655C6.13062 41.858 6.13062 41.858 5.67985 41.5075C5.2895 41.0214 5.29936 40.7511 5.29853 40.1321C5.29675 39.9262 5.29497 39.7204 5.29313 39.5084C5.29436 39.2806 5.29565 39.0527 5.29701 38.8249C5.29615 38.5848 5.29502 38.3447 5.29365 38.1045C5.29076 37.4524 5.29188 36.8003 5.29389 36.1482C5.29549 35.4656 5.294 34.783 5.29301 34.1004C5.29186 32.9537 5.29338 31.8071 5.29639 30.6604C5.29983 29.3354 5.29872 28.0105 5.29523 26.6855C5.29236 25.5476 5.29196 24.4098 5.29361 23.2719C5.2946 22.5924 5.29473 21.913 5.29264 21.2335C5.29081 20.5944 5.29209 19.9553 5.29574 19.3161C5.29657 19.0818 5.29634 18.8475 5.29494 18.6132C5.2932 18.2928 5.29577 17.9724 5.29853 17.6521C5.29877 17.4729 5.29901 17.2938 5.29926 17.1092C5.42688 16.3111 5.83104 15.8212 6.42699 15.2962C6.98286 14.9012 7.26689 14.851 7.94312 14.8498ZM59.4844 22.9394C59.4844 23.8269 59.4844 24.7144 59.4844 25.6288C63.5043 25.6288 67.5242 25.6288 71.666 25.6288C71.4473 24.5366 71.4473 24.5366 70.9046 23.7501C70.7906 23.6186 70.7906 23.6186 70.6741 23.4844C70.039 22.954 69.3947 22.9003 68.5901 22.9034C68.3875 22.9035 68.1848 22.9035 67.976 22.9035C67.7564 22.9051 67.5368 22.9068 67.3173 22.9085C67.0914 22.909 66.8655 22.9095 66.6396 22.9098C66.0469 22.911 65.4542 22.9141 64.8615 22.9176C64.2559 22.9209 63.6504 22.9223 63.0449 22.9239C61.858 22.9273 60.6712 22.9329 59.4844 22.9394ZM59.4844 28.3183C59.4844 30.9808 59.4844 33.6434 59.4844 36.3866C63.8175 36.3866 68.1507 36.3866 72.6152 36.3866C72.3052 35.1141 71.9953 33.8415 71.6759 32.5304C71.5782 32.1286 71.4805 31.7268 71.3799 31.3128C71.3025 30.9956 71.225 30.6785 71.1475 30.3613C71.1073 30.1955 71.0672 30.0298 71.0257 29.859C70.968 29.623 70.968 29.623 70.909 29.3822C70.8756 29.2452 70.8423 29.1082 70.8079 28.967C70.7269 28.6292 70.7269 28.6292 70.5586 28.3183C66.9041 28.3183 63.2496 28.3183 59.4844 28.3183ZM75.6211 44.6132C75.5248 45.8933 75.5248 45.8933 76.0957 46.9862C76.5957 47.2999 76.9743 47.3378 77.5591 47.3224C77.8071 47.3159 78.055 47.3094 78.3105 47.3026C78.3105 46.4151 78.3105 45.5276 78.3105 44.6132C77.423 44.6132 76.5355 44.6132 75.6211 44.6132ZM18.8262 54.4218C17.6797 55.9741 17.3987 57.4122 17.5605 59.3261C17.6968 59.8602 17.9 60.2852 18.1933 60.7499C18.2912 60.9123 18.2912 60.9123 18.3911 61.0781C19.1691 62.2385 20.3212 63.0827 21.6738 63.4394C23.5794 63.6214 25.1047 63.3435 26.6072 62.1354C27.7492 61.0302 28.3247 59.6528 28.3876 58.0802C28.3335 56.4413 27.7705 55.3028 26.6362 54.1313C25.4049 53.0056 24.1524 52.5973 22.484 52.6327C21.0615 52.7734 19.8218 53.401 18.8262 54.4218ZM63.2812 54.7382C62.2267 56.1021 62.0237 57.4676 62.1738 59.1679C62.5334 60.6592 63.4314 61.8985 64.6871 62.7664C66.0366 63.567 67.5376 63.6279 69.0686 63.3708C70.4677 62.9763 71.5239 62.0125 72.2642 60.787C72.3278 60.6703 72.3915 60.5537 72.457 60.4335C72.5109 60.3364 72.5647 60.2394 72.6202 60.1393C73.1474 58.9969 73.1015 57.6366 72.8037 56.4383C72.189 54.7728 71.0865 53.7174 69.4926 52.9782C67.1221 52.0611 64.9206 52.942 63.2812 54.7382Z" fill="#3F4A5D"/>
<path d="M43.8223 27.0527C44.301 27.3719 44.4251 27.5993 44.6133 28.1404C44.6133 29.1245 43.7995 29.8017 43.1422 30.4633C43.0326 30.5721 42.9229 30.6809 42.8099 30.7929C42.6347 30.9687 42.6347 30.9687 42.4558 31.1479C42.0712 31.5332 41.6855 31.9172 41.2997 32.3012C41.0317 32.569 40.7638 32.8368 40.4959 33.1047C39.9355 33.6649 39.3745 34.2246 38.8131 34.7839C38.0923 35.502 37.3726 36.2211 36.6532 36.9406C36.1006 37.4931 35.5476 38.0453 34.9945 38.5973C34.7289 38.8624 34.4633 39.1277 34.1978 39.393C33.8278 39.7627 33.4573 40.1318 33.0866 40.5008C32.9763 40.6112 32.866 40.7215 32.7524 40.8352C32.6014 40.9853 32.6014 40.9853 32.4473 41.1383C32.3597 41.2256 32.2722 41.3129 32.182 41.4028C31.7433 41.8018 31.3079 41.8482 30.722 41.8397C30.2915 41.7478 30.1081 41.5903 29.786 41.2927C29.6761 41.1918 29.5663 41.0908 29.4531 40.9869C28.8673 40.4267 28.2888 39.8602 27.7164 39.2863C27.5891 39.159 27.4617 39.0318 27.3304 38.9007C27.0636 38.6339 26.7969 38.367 26.5304 38.0998C26.1217 37.6903 25.7122 37.2816 25.3026 36.8731C25.0426 36.6129 24.7826 36.3528 24.5227 36.0925C24.4003 35.9704 24.2779 35.8483 24.1517 35.7225C24.0386 35.6089 23.9255 35.4953 23.809 35.3783C23.6598 35.2289 23.6598 35.2289 23.5076 35.0765C23.1106 34.6478 22.9461 34.3816 22.8702 33.7961C22.9395 33.2226 22.9395 33.2226 23.2657 32.7579C23.7305 32.4316 23.7305 32.4316 24.2545 32.313C24.8584 32.4358 24.9978 32.5242 25.4346 32.9211C25.6007 33.0718 25.6007 33.0718 25.7701 33.2256C26.278 33.7031 26.7745 34.1904 27.2653 34.6854C27.3689 34.7892 27.4724 34.893 27.5791 34.9999C27.905 35.3266 28.2303 35.654 28.5557 35.9813C28.7785 36.2049 29.0014 36.4286 29.2243 36.6521C29.7665 37.196 30.3082 37.7405 30.8496 38.2851C31.2958 38.082 31.6197 37.8706 31.9648 37.5233C32.0557 37.4326 32.1467 37.3419 32.2403 37.2484C32.3382 37.1492 32.436 37.05 32.5368 36.9478C32.6935 36.7907 32.6935 36.7907 32.8535 36.6305C33.1985 36.2844 33.5424 35.9373 33.8864 35.5901C34.1258 35.3497 34.3653 35.1093 34.605 34.869C35.2354 34.2365 35.865 33.603 36.4943 32.9693C37.5027 31.9542 38.512 30.9401 39.5219 29.9265C39.8751 29.5717 40.2278 29.2163 40.5804 28.8609C40.7959 28.6444 41.0113 28.4279 41.2268 28.2114C41.3253 28.1119 41.4237 28.0123 41.5252 27.9098C42.2751 27.1579 42.7428 26.901 43.8223 27.0527Z" fill="#3F4A5D"/>
<path d="M35.1297 49.8925C35.323 49.8913 35.5163 49.8902 35.7154 49.889C36.2444 49.8868 36.7731 49.8882 37.302 49.8913C37.8561 49.8939 38.4101 49.8925 38.9642 49.8917C39.8947 49.8909 40.825 49.8935 41.7554 49.8979C42.8303 49.9029 43.9051 49.9029 44.9801 49.9002C46.0151 49.8977 47.0501 49.8988 48.0851 49.9015C48.5251 49.9026 48.9651 49.9024 49.4052 49.9012C50.0199 49.8998 50.6345 49.9036 51.2492 49.9079C51.4315 49.9069 51.6138 49.9059 51.8016 49.9048C53.0329 49.9196 53.0329 49.9196 53.6644 50.2921C53.9872 50.6721 54.0546 50.843 54.0461 51.337C54.0482 51.4561 54.0502 51.5752 54.0523 51.6979C53.8857 52.2546 53.6591 52.3851 53.1562 52.6818C52.5213 52.7786 51.8904 52.7698 51.2492 52.7662C51.0559 52.7675 50.8626 52.7689 50.6635 52.7703C50.1346 52.7733 49.6058 52.7734 49.0769 52.772C48.635 52.7712 48.1931 52.7723 47.7512 52.7735C46.7086 52.7762 45.6661 52.7756 44.6235 52.773C43.5486 52.7703 42.4737 52.7728 41.3988 52.7779C40.4751 52.7821 39.5514 52.7833 38.6277 52.7819C38.0764 52.7811 37.5251 52.7815 36.9737 52.7847C36.359 52.7882 35.7444 52.7852 35.1297 52.7816C34.8563 52.7844 34.8563 52.7844 34.5773 52.7872C33.3484 52.7725 33.3484 52.7725 32.7141 52.3146C32.3384 51.7508 32.3129 51.4481 32.4316 50.7833C33.1195 49.7512 34.0029 49.881 35.1297 49.8925Z" fill="#3F4A5D"/>
<path d="M4.99606 44.5313C5.16641 44.5302 5.33677 44.5291 5.51228 44.5279C6.07596 44.5252 6.6395 44.527 7.20318 44.5291C7.59447 44.5287 7.98576 44.5281 8.37705 44.5273C9.19736 44.5264 10.0176 44.5277 10.8379 44.5307C11.8903 44.5343 12.9424 44.5322 13.9948 44.5284C14.8028 44.5261 15.6109 44.5269 16.419 44.5285C16.807 44.5289 17.1951 44.5284 17.5831 44.5269C18.1251 44.5253 18.667 44.5278 19.209 44.5313C19.3699 44.53 19.5309 44.5287 19.6967 44.5274C20.7827 44.5405 20.7827 44.5405 21.2986 44.9149C21.6011 45.3763 21.6047 45.673 21.5787 46.2107C21.4826 46.6695 21.2522 46.8728 20.8828 47.1444C20.5148 47.3284 20.3008 47.3233 19.891 47.3249C19.6784 47.3262 19.6784 47.3262 19.4616 47.3276C19.2277 47.3279 19.2277 47.3279 18.9891 47.3281C18.8252 47.3289 18.6614 47.3297 18.4925 47.3305C17.9485 47.3328 17.4044 47.3339 16.8604 47.3348C16.4832 47.3357 16.106 47.3366 15.7288 47.3375C14.9371 47.3392 14.1454 47.3401 13.3537 47.3406C12.3386 47.3415 11.3236 47.3453 10.3085 47.3498C9.52912 47.3528 8.7497 47.3536 7.97026 47.3538C7.59603 47.3543 7.2218 47.3556 6.84758 47.3577C6.32414 47.3603 5.80079 47.3601 5.27736 47.359C5.12241 47.3605 4.96747 47.3619 4.80782 47.3634C4.03007 47.3587 3.47155 47.3502 2.84765 46.828C2.60011 46.3329 2.57918 45.7822 2.68945 45.246C3.25193 44.3821 4.06723 44.5239 4.99606 44.5313Z" fill="#3F4A5D"/>
<path d="M68.848 55.6083C69.5518 56.0053 69.9608 56.5135 70.2422 57.2695C70.3812 58.0556 70.3484 58.7503 69.9752 59.4645C69.5043 60.1009 69.0985 60.4984 68.3438 60.7499C67.4551 60.8447 66.6563 60.8488 65.8978 60.3365C65.3294 59.8244 64.9433 59.2538 64.7928 58.4974C64.747 57.6135 64.969 56.8746 65.4961 56.1621C66.523 55.3447 67.623 55.0817 68.848 55.6083Z" fill="#3F4A5D"/>
<path d="M24.0666 55.5393C24.7815 56.021 25.3537 56.6021 25.6289 57.4278C25.7141 58.4327 25.5722 59.1209 24.9961 59.9591C24.2186 60.6986 23.5812 60.7985 22.5439 60.7834C21.7505 60.7165 21.2643 60.3833 20.7543 59.8009C20.1667 58.995 20.1456 58.2374 20.25 57.2696C20.529 56.4245 21.0638 55.9543 21.832 55.5294C22.6127 55.2692 23.2976 55.2778 24.0666 55.5393Z" fill="#3F4A5D"/>
</g>
<defs>
<clipPath id="clip0_165_298">
<rect width="81" height="81" fill="white"/>
</clipPath>
</defs>
</svg>
