<svg width="24" height="24" viewBox="0 0 24 24" fill="none" xmlns="http://www.w3.org/2000/svg">
<path d="M12.0273 0H11.9727C5.36035 0 0 5.36035 0 11.9727V12.0273C0 18.6397 5.36035 24 11.9727 24H12.0273C18.6397 24 24 18.6397 24 12.0273V11.9727C24 5.36035 18.6397 0 12.0273 0Z" fill="#FBF9FB"/>
<path d="M14.339 15.5099C11.2674 15.5099 8.76842 13.0101 8.76758 9.93854C8.76842 9.15992 9.40241 8.52677 10.1793 8.52677C10.2592 8.52677 10.3383 8.5335 10.4139 8.54695C10.5804 8.5747 10.7385 8.63104 10.884 8.71596C10.905 8.72857 10.9193 8.74876 10.9226 8.7723L11.2472 10.8181C11.2514 10.8416 11.2438 10.866 11.2279 10.8836C11.0488 11.0821 10.8201 11.225 10.5653 11.2965L10.4425 11.331L10.4888 11.4495C10.9075 12.5157 11.7601 13.3675 12.8271 13.7879L12.9457 13.835L12.9802 13.7122C13.0516 13.4574 13.1946 13.2287 13.393 13.0496C13.4073 13.0362 13.4267 13.0295 13.446 13.0295C13.4502 13.0295 13.4544 13.0295 13.4595 13.0303L15.5052 13.3549C15.5296 13.3591 15.5498 13.3725 15.5624 13.3935C15.6465 13.539 15.7028 13.6979 15.7314 13.8644C15.7448 13.9384 15.7507 14.0166 15.7507 14.0982C15.7507 14.8759 15.1176 15.5091 14.339 15.5099Z" fill="currentColor"/>
<path d="M19.7859 11.3263C19.6202 9.45457 18.7626 7.71824 17.371 6.43765C15.971 5.14949 14.1548 4.43982 12.2554 4.43982C8.08649 4.43982 4.69456 7.83175 4.69456 12.0006C4.69456 13.3998 5.0805 14.7628 5.81118 15.95L4.18164 19.5572L9.39903 19.0014C10.3063 19.3731 11.2665 19.5614 12.2545 19.5614C12.5143 19.5614 12.7809 19.548 13.0483 19.5202C13.2837 19.495 13.5217 19.458 13.7554 19.4109C17.2466 18.7055 19.7951 15.607 19.8153 12.041V12.0006C19.8153 11.7736 19.8052 11.5466 19.785 11.3271L19.7859 11.3263ZM9.6 17.4181L6.71341 17.7259L7.57527 15.8163L7.40289 15.5851C7.39028 15.5683 7.37767 15.5515 7.36337 15.5321C6.61503 14.4987 6.21983 13.2779 6.21983 12.0015C6.21983 8.67343 8.92732 5.96594 12.2554 5.96594C15.3732 5.96594 18.0159 8.39848 18.2707 11.5037C18.2842 11.6702 18.2917 11.8375 18.2917 12.0023C18.2917 12.0494 18.2909 12.0956 18.29 12.1452C18.2261 14.9293 16.2813 17.2937 13.5603 17.8957C13.3526 17.942 13.1399 17.9773 12.928 18C12.7077 18.0252 12.4815 18.0378 12.257 18.0378C11.4574 18.0378 10.6805 17.8831 9.94642 17.5771C9.86486 17.5443 9.78498 17.5089 9.71014 17.4728L9.60084 17.4198L9.6 17.4181Z" fill="currentColor"/>
</svg>
